<svg width="17" height="17" viewBox="0 0 17 17" fill="none" xmlns="http://www.w3.org/2000/svg">
<path d="M8.50065 14.8335C10.1804 14.8335 11.7913 14.1662 12.979 12.9785C14.1667 11.7908 14.834 10.1799 14.834 8.50016C14.834 6.82046 14.1667 5.20955 12.979 4.02182C11.7913 2.83409 10.1804 2.16683 8.50065 2.16683C6.82095 2.16683 5.21004 2.83409 4.02231 4.02182C2.83458 5.20955 2.16732 6.82046 2.16732 8.50016C2.16732 10.1799 2.83458 11.7908 4.02231 12.9785C5.21004 14.1662 6.82095 14.8335 8.50065 14.8335ZM8.50065 16.4168C4.12828 16.4168 0.583984 12.8725 0.583984 8.50016C0.583984 4.12779 4.12828 0.583496 8.50065 0.583496C12.873 0.583496 16.4173 4.12779 16.4173 8.50016C16.4173 12.8725 12.873 16.4168 8.50065 16.4168ZM6.03857 9.42641L4.06098 8.8097C3.63348 8.67908 3.63111 8.38458 4.15678 8.1732L11.8621 5.19654C12.3094 5.01446 12.5627 5.24483 12.4178 5.82195L11.106 12.0128C11.0142 12.4537 10.749 12.559 10.3809 12.3556L8.36132 10.8609L7.42003 11.7697C7.32344 11.8632 7.24507 11.9431 7.09623 11.9629C6.94819 11.9835 6.82628 11.9392 6.73682 11.6937L6.04807 9.42087L6.03857 9.42641Z" fill="#E0BEA2"/>
</svg>
